# Generated from the accepted BlenderMCP scene.
v 11.8225 -8.292099 0.5125
vt 0.375 0
v 11.8225 -8.292099 0.6075
vt 0.625 0
v 11.8225 -8.2801 0.6075
vt 0.625 0.25
v 11.8225 -8.292099 0.5125
vt 0.375 0
v 11.8225 -8.2801 0.6075
vt 0.625 0.25
v 11.8225 -8.2801 0.5125
vt 0.375 0.25
v 11.8225 -8.2801 0.5125
vt 0.375 0.25
v 11.8225 -8.2801 0.6075
vt 0.625 0.25
v 12.0425 -8.2801 0.6075
vt 0.625 0.5
v 11.8225 -8.2801 0.5125
vt 0.375 0.25
v 12.0425 -8.2801 0.6075
vt 0.625 0.5
v 12.0425 -8.2801 0.5125
vt 0.375 0.5
v 12.0425 -8.2801 0.5125
vt 0.375 0.5
v 12.0425 -8.2801 0.6075
vt 0.625 0.5
v 12.0425 -8.292099 0.6075
vt 0.625 0.75
v 12.0425 -8.2801 0.5125
vt 0.375 0.5
v 12.0425 -8.292099 0.6075
vt 0.625 0.75
v 12.0425 -8.292099 0.5125
vt 0.375 0.75
v 12.0425 -8.292099 0.5125
vt 0.375 0.75
v 12.0425 -8.292099 0.6075
vt 0.625 0.75
v 11.8225 -8.292099 0.6075
vt 0.625 1
v 12.0425 -8.292099 0.5125
vt 0.375 0.75
v 11.8225 -8.292099 0.6075
vt 0.625 1
v 11.8225 -8.292099 0.5125
vt 0.375 1
v 11.8225 -8.2801 0.5125
vt 0.125 0.5
v 12.0425 -8.2801 0.5125
vt 0.375 0.5
v 12.0425 -8.292099 0.5125
vt 0.375 0.75
v 11.8225 -8.2801 0.5125
vt 0.125 0.5
v 12.0425 -8.292099 0.5125
vt 0.375 0.75
v 11.8225 -8.292099 0.5125
vt 0.125 0.75
v 12.0425 -8.2801 0.6075
vt 0.625 0.5
v 11.8225 -8.2801 0.6075
vt 0.875 0.5
v 11.8225 -8.292099 0.6075
vt 0.875 0.75
v 12.0425 -8.2801 0.6075
vt 0.625 0.5
v 11.8225 -8.292099 0.6075
vt 0.875 0.75
v 12.0425 -8.292099 0.6075
vt 0.625 0.75
f 1/1 2/2 3/3
f 4/4 5/5 6/6
f 7/7 8/8 9/9
f 10/10 11/11 12/12
f 13/13 14/14 15/15
f 16/16 17/17 18/18
f 19/19 20/20 21/21
f 22/22 23/23 24/24
f 25/25 26/26 27/27
f 28/28 29/29 30/30
f 31/31 32/32 33/33
f 34/34 35/35 36/36
