# Per-element convex collision source from Blender.
v 9.520003 2.059998 0.25
v 9.519997 3.939998 0.25
v 9.527835 2.059998 0.2005573
v 9.527828 3.939998 0.2005572
v 9.550561 2.059998 0.1559544
v 9.550554 3.939998 0.1559543
v 9.585958 2.059999 0.1205573
v 9.585952 3.939998 0.1205572
v 9.630561 2.059999 0.097831
v 9.630554 3.939999 0.09783091
v 9.680003 2.059999 0.09000005
v 9.679997 3.939999 0.08999996
v 9.729446 2.059999 0.097831
v 9.72944 3.939999 0.09783091
v 9.774049 2.059999 0.1205573
v 9.774043 3.939999 0.1205572
v 9.809446 2.059999 0.1559544
v 9.80944 3.939999 0.1559543
v 9.832172 2.059999 0.2005573
v 9.832166 3.939999 0.2005572
v 9.840004 2.059999 0.25
v 9.839997 3.939999 0.25
v 9.832172 2.059999 0.2994428
v 9.832166 3.939999 0.2994427
v 9.809446 2.059999 0.3440457
v 9.80944 3.939999 0.3440456
v 9.774049 2.059999 0.3794428
v 9.774043 3.939999 0.3794427
v 9.729446 2.059999 0.4021691
v 9.72944 3.939999 0.402169
v 9.680003 2.059999 0.41
v 9.679997 3.939999 0.41
v 9.630561 2.059999 0.4021691
v 9.630554 3.939999 0.402169
v 9.585958 2.059999 0.3794428
v 9.585952 3.939998 0.3794427
v 9.550561 2.059998 0.3440457
v 9.550554 3.939998 0.3440456
v 9.527835 2.059998 0.2994428
v 9.527828 3.939998 0.2994427
f 1 2 4
f 1 4 3
f 3 4 6
f 3 6 5
f 5 6 8
f 5 8 7
f 7 8 10
f 7 10 9
f 9 10 12
f 9 12 11
f 11 12 14
f 11 14 13
f 13 14 16
f 13 16 15
f 15 16 18
f 15 18 17
f 17 18 20
f 17 20 19
f 19 20 22
f 19 22 21
f 21 22 24
f 21 24 23
f 23 24 26
f 23 26 25
f 25 26 28
f 25 28 27
f 27 28 30
f 27 30 29
f 29 30 32
f 29 32 31
f 31 32 34
f 31 34 33
f 33 34 36
f 33 36 35
f 35 36 38
f 35 38 37
f 6 4 2
f 2 40 38
f 38 36 34
f 34 32 30
f 30 28 26
f 26 24 22
f 22 20 18
f 18 16 14
f 14 12 10
f 10 8 6
f 6 2 38
f 38 34 30
f 30 26 22
f 22 18 14
f 14 10 6
f 6 38 30
f 30 22 14
f 30 14 6
f 37 38 40
f 37 40 39
f 39 40 2
f 39 2 1
f 39 1 3
f 3 5 7
f 7 9 11
f 11 13 15
f 15 17 19
f 19 21 23
f 23 25 27
f 27 29 31
f 31 33 35
f 35 37 39
f 39 3 7
f 7 11 15
f 15 19 23
f 23 27 31
f 31 35 39
f 39 7 15
f 15 23 31
f 15 31 39
