# Generated from the accepted BlenderMCP scene.
v -10 -11 0
v -10 -11 0.05
v -10 -10.6 0.05
v -10 -10.6 0
v -9.6 -10.6 0.05
v -9.6 -10.6 0
v -9.6 -11 0.05
v -9.6 -11 0
v -9.8 -10.664 0.05000001
v -9.8 -10.784 0.5
v -9.795056 -10.78478 0.5
v -9.757974 -10.67066 0.05000001
v -9.790596 -10.78706 0.5
v -9.720061 -10.68997 0.05000001
v -9.787056 -10.7906 0.5
v -9.689974 -10.72006 0.05000001
v -9.784783 -10.79506 0.5
v -9.670656 -10.75797 0.05000001
v -9.784 -10.8 0.5
v -9.664001 -10.8 0.05000001
v -9.784783 -10.80494 0.5
v -9.670656 -10.84203 0.05000001
v -9.787056 -10.8094 0.5
v -9.689974 -10.87994 0.05000001
v -9.790596 -10.81294 0.5
v -9.720061 -10.91003 0.05000001
v -9.795056 -10.81522 0.5
v -9.757974 -10.92934 0.05000001
v -9.8 -10.816 0.5
v -9.8 -10.936 0.05000001
v -9.804944 -10.81522 0.5
v -9.842027 -10.92934 0.05000001
v -9.809404 -10.81294 0.5
v -9.879939 -10.91003 0.05000001
v -9.812944 -10.8094 0.5
v -9.910027 -10.87994 0.05000001
v -9.815217 -10.80494 0.5
v -9.929344 -10.84203 0.05000001
v -9.816 -10.8 0.5
v -9.936 -10.8 0.05000001
v -9.815217 -10.79506 0.5
v -9.929344 -10.75797 0.05000001
v -9.812944 -10.7906 0.5
v -9.910027 -10.72006 0.05000001
v -9.809404 -10.78706 0.5
v -9.879939 -10.68997 0.05000001
v -9.804944 -10.78478 0.5
v -9.842027 -10.67066 0.05000001
v -8.4 -11 0
v -8.4 -11 0.05
v -8.4 -10.6 0.05
v -8.4 -10.6 0
v -8 -10.6 0.05
v -8 -10.6 0
v -8 -11 0.05
v -8 -11 0
v -8.2 -10.664 0.05000001
v -8.2 -10.784 0.5
v -8.195056 -10.78478 0.5
v -8.157973 -10.67066 0.05000001
v -8.190596 -10.78706 0.5
v -8.120061 -10.68997 0.05000001
v -8.187056 -10.7906 0.5
v -8.089973 -10.72006 0.05000001
v -8.184783 -10.79506 0.5
v -8.070656 -10.75797 0.05000001
v -8.184 -10.8 0.5
v -8.064 -10.8 0.05000001
v -8.184783 -10.80494 0.5
v -8.070656 -10.84203 0.05000001
v -8.187056 -10.8094 0.5
v -8.089973 -10.87994 0.05000001
v -8.190596 -10.81294 0.5
v -8.120061 -10.91003 0.05000001
v -8.195056 -10.81522 0.5
v -8.157973 -10.92934 0.05000001
v -8.2 -10.816 0.5
v -8.2 -10.936 0.05000001
v -8.204944 -10.81522 0.5
v -8.242026 -10.92934 0.05000001
v -8.209404 -10.81294 0.5
v -8.279939 -10.91003 0.05000001
v -8.212944 -10.8094 0.5
v -8.310026 -10.87994 0.05000001
v -8.215217 -10.80494 0.5
v -8.329344 -10.84203 0.05000001
v -8.216 -10.8 0.5
v -8.335999 -10.8 0.05000001
v -8.215217 -10.79506 0.5
v -8.329344 -10.75797 0.05000001
v -8.212944 -10.7906 0.5
v -8.310026 -10.72006 0.05000001
v -8.209404 -10.78706 0.5
v -8.279939 -10.68997 0.05000001
v -8.204944 -10.78478 0.5
v -8.242026 -10.67066 0.05000001
v -10 -9.4 0
v -10 -9.4 0.05
v -10 -9 0.05
v -10 -9 0
v -9.6 -9 0.05
v -9.6 -9 0
v -9.6 -9.4 0.05
v -9.6 -9.4 0
v -9.8 -9.064 0.05000001
v -9.8 -9.184 0.5
v -9.795056 -9.184783 0.5
v -9.757974 -9.070656 0.05000001
v -9.790596 -9.187056 0.5
v -9.720061 -9.089973 0.05000001
v -9.787056 -9.190596 0.5
v -9.689974 -9.120061 0.05000001
v -9.784783 -9.195056 0.5
v -9.670656 -9.157973 0.05000001
v -9.784 -9.2 0.5
v -9.664001 -9.2 0.05000001
v -9.784783 -9.204944 0.5
v -9.670656 -9.242026 0.05000001
v -9.787056 -9.209404 0.5
v -9.689974 -9.279939 0.05000001
v -9.790596 -9.212944 0.5
v -9.720061 -9.310026 0.05000001
v -9.795056 -9.215217 0.5
v -9.757974 -9.329344 0.05000001
v -9.8 -9.216 0.5
v -9.8 -9.335999 0.05000001
v -9.804944 -9.215217 0.5
v -9.842027 -9.329344 0.05000001
v -9.809404 -9.212944 0.5
v -9.879939 -9.310026 0.05000001
v -9.812944 -9.209404 0.5
v -9.910027 -9.279939 0.05000001
v -9.815217 -9.204944 0.5
v -9.929344 -9.242026 0.05000001
v -9.816 -9.2 0.5
v -9.936 -9.2 0.05000001
v -9.815217 -9.195056 0.5
v -9.929344 -9.157973 0.05000001
v -9.812944 -9.190596 0.5
v -9.910027 -9.120061 0.05000001
v -9.809404 -9.187056 0.5
v -9.879939 -9.089973 0.05000001
v -9.804944 -9.184783 0.5
v -9.842027 -9.070656 0.05000001
v -8.4 -9.4 0
v -8.4 -9.4 0.05
v -8.4 -9 0.05
v -8.4 -9 0
v -8 -9 0.05
v -8 -9 0
v -8 -9.4 0.05
v -8 -9.4 0
v -8.2 -9.064 0.05000001
v -8.2 -9.184 0.5
v -8.195056 -9.184783 0.5
v -8.157973 -9.070656 0.05000001
v -8.190596 -9.187056 0.5
v -8.120061 -9.089973 0.05000001
v -8.187056 -9.190596 0.5
v -8.089973 -9.120061 0.05000001
v -8.184783 -9.195056 0.5
v -8.070656 -9.157973 0.05000001
v -8.184 -9.2 0.5
v -8.064 -9.2 0.05000001
v -8.184783 -9.204944 0.5
v -8.070656 -9.242026 0.05000001
v -8.187056 -9.209404 0.5
v -8.089973 -9.279939 0.05000001
v -8.190596 -9.212944 0.5
v -8.120061 -9.310026 0.05000001
v -8.195056 -9.215217 0.5
v -8.157973 -9.329344 0.05000001
v -8.2 -9.216 0.5
v -8.2 -9.335999 0.05000001
v -8.204944 -9.215217 0.5
v -8.242026 -9.329344 0.05000001
v -8.209404 -9.212944 0.5
v -8.279939 -9.310026 0.05000001
v -8.212944 -9.209404 0.5
v -8.310026 -9.279939 0.05000001
v -8.215217 -9.204944 0.5
v -8.329344 -9.242026 0.05000001
v -8.216 -9.2 0.5
v -8.335999 -9.2 0.05000001
v -8.215217 -9.195056 0.5
v -8.329344 -9.157973 0.05000001
v -8.212944 -9.190596 0.5
v -8.310026 -9.120061 0.05000001
v -8.209404 -9.187056 0.5
v -8.279939 -9.089973 0.05000001
v -8.204944 -9.184783 0.5
v -8.242026 -9.070656 0.05000001
v -9.8 -10.6728 0.21
v -9.8 -10.6728 0.29
v -9.760694 -10.67903 0.29
v -9.760694 -10.67903 0.21
v -9.725234 -10.69709 0.29
v -9.725234 -10.69709 0.21
v -9.697093 -10.72523 0.29
v -9.697093 -10.72523 0.21
v -9.679026 -10.76069 0.29
v -9.679026 -10.76069 0.21
v -9.6728 -10.8 0.29
v -9.6728 -10.8 0.21
v -9.679026 -10.83931 0.29
v -9.679026 -10.83931 0.21
v -9.697093 -10.87477 0.29
v -9.697093 -10.87477 0.21
v -9.725234 -10.90291 0.29
v -9.725234 -10.90291 0.21
v -9.760694 -10.92097 0.29
v -9.760694 -10.92097 0.21
v -9.8 -10.9272 0.29
v -9.8 -10.9272 0.21
v -9.839307 -10.92097 0.29
v -9.839307 -10.92097 0.21
v -9.874766 -10.90291 0.29
v -9.874766 -10.90291 0.21
v -9.902907 -10.87477 0.29
v -9.902907 -10.87477 0.21
v -9.920975 -10.83931 0.29
v -9.920975 -10.83931 0.21
v -9.9272 -10.8 0.29
v -9.9272 -10.8 0.21
v -9.920975 -10.76069 0.29
v -9.920975 -10.76069 0.21
v -9.902907 -10.72523 0.29
v -9.902907 -10.72523 0.21
v -9.874766 -10.69709 0.29
v -9.874766 -10.69709 0.21
v -9.839307 -10.67903 0.29
v -9.839307 -10.67903 0.21
v -8.2 -10.6728 0.21
v -8.2 -10.6728 0.29
v -8.160693 -10.67903 0.29
v -8.160693 -10.67903 0.21
v -8.125234 -10.69709 0.29
v -8.125234 -10.69709 0.21
v -8.097093 -10.72523 0.29
v -8.097093 -10.72523 0.21
v -8.079025 -10.76069 0.29
v -8.079025 -10.76069 0.21
v -8.0728 -10.8 0.29
v -8.0728 -10.8 0.21
v -8.079025 -10.83931 0.29
v -8.079025 -10.83931 0.21
v -8.097093 -10.87477 0.29
v -8.097093 -10.87477 0.21
v -8.125234 -10.90291 0.29
v -8.125234 -10.90291 0.21
v -8.160693 -10.92097 0.29
v -8.160693 -10.92097 0.21
v -8.2 -10.9272 0.29
v -8.2 -10.9272 0.21
v -8.239306 -10.92097 0.29
v -8.239306 -10.92097 0.21
v -8.274766 -10.90291 0.29
v -8.274766 -10.90291 0.21
v -8.302907 -10.87477 0.29
v -8.302907 -10.87477 0.21
v -8.320974 -10.83931 0.29
v -8.320974 -10.83931 0.21
v -8.3272 -10.8 0.29
v -8.3272 -10.8 0.21
v -8.320974 -10.76069 0.29
v -8.320974 -10.76069 0.21
v -8.302907 -10.72523 0.29
v -8.302907 -10.72523 0.21
v -8.274766 -10.69709 0.29
v -8.274766 -10.69709 0.21
v -8.239306 -10.67903 0.29
v -8.239306 -10.67903 0.21
v -9.8 -9.0728 0.21
v -9.8 -9.0728 0.29
v -9.760694 -9.079025 0.29
v -9.760694 -9.079025 0.21
v -9.725234 -9.097093 0.29
v -9.725234 -9.097093 0.21
v -9.697093 -9.125234 0.29
v -9.697093 -9.125234 0.21
v -9.679026 -9.160693 0.29
v -9.679026 -9.160693 0.21
v -9.6728 -9.2 0.29
v -9.6728 -9.2 0.21
v -9.679026 -9.239306 0.29
v -9.679026 -9.239306 0.21
v -9.697093 -9.274766 0.29
v -9.697093 -9.274766 0.21
v -9.725234 -9.302907 0.29
v -9.725234 -9.302907 0.21
v -9.760694 -9.320974 0.29
v -9.760694 -9.320974 0.21
v -9.8 -9.3272 0.29
v -9.8 -9.3272 0.21
v -9.839307 -9.320974 0.29
v -9.839307 -9.320974 0.21
v -9.874766 -9.302907 0.29
v -9.874766 -9.302907 0.21
v -9.902907 -9.274766 0.29
v -9.902907 -9.274766 0.21
v -9.920975 -9.239306 0.29
v -9.920975 -9.239306 0.21
v -9.9272 -9.2 0.29
v -9.9272 -9.2 0.21
v -9.920975 -9.160693 0.29
v -9.920975 -9.160693 0.21
v -9.902907 -9.125234 0.29
v -9.902907 -9.125234 0.21
v -9.874766 -9.097093 0.29
v -9.874766 -9.097093 0.21
v -9.839307 -9.079025 0.29
v -9.839307 -9.079025 0.21
v -8.2 -9.0728 0.21
v -8.2 -9.0728 0.29
v -8.160693 -9.079025 0.29
v -8.160693 -9.079025 0.21
v -8.125234 -9.097093 0.29
v -8.125234 -9.097093 0.21
v -8.097093 -9.125234 0.29
v -8.097093 -9.125234 0.21
v -8.079025 -9.160693 0.29
v -8.079025 -9.160693 0.21
v -8.0728 -9.2 0.29
v -8.0728 -9.2 0.21
v -8.079025 -9.239306 0.29
v -8.079025 -9.239306 0.21
v -8.097093 -9.274766 0.29
v -8.097093 -9.274766 0.21
v -8.125234 -9.302907 0.29
v -8.125234 -9.302907 0.21
v -8.160693 -9.320974 0.29
v -8.160693 -9.320974 0.21
v -8.2 -9.3272 0.29
v -8.2 -9.3272 0.21
v -8.239306 -9.320974 0.29
v -8.239306 -9.320974 0.21
v -8.274766 -9.302907 0.29
v -8.274766 -9.302907 0.21
v -8.302907 -9.274766 0.29
v -8.302907 -9.274766 0.21
v -8.320974 -9.239306 0.29
v -8.320974 -9.239306 0.21
v -8.3272 -9.2 0.29
v -8.3272 -9.2 0.21
v -8.320974 -9.160693 0.29
v -8.320974 -9.160693 0.21
v -8.302907 -9.125234 0.29
v -8.302907 -9.125234 0.21
v -8.274766 -9.097093 0.29
v -8.274766 -9.097093 0.21
v -8.239306 -9.079025 0.29
v -8.239306 -9.079025 0.21
vt 0.375 0
vt 0.625 0
vt 0.625 0.25
vt 0.375 0.25
vt 0.625 0.5
vt 0.375 0.5
vt 0.625 0.75
vt 0.375 0.75
vt 0.625 1
vt 0.375 1
vt 0.125 0.5
vt 0.125 0.75
vt 0.875 0.5
vt 0.875 0.75
vt 1 0.5
vt 1 1
vt 0.95 1
vt 0.95 0.5
vt 0.9 1
vt 0.9 0.5
vt 0.85 1
vt 0.85 0.5
vt 0.8 1
vt 0.8 0.5
vt 0.7499999 1
vt 0.7499999 0.5
vt 0.6999999 1
vt 0.6999999 0.5
vt 0.6499999 1
vt 0.6499999 0.5
vt 0.5999999 1
vt 0.5999999 0.5
vt 0.5499999 1
vt 0.5499999 0.5
vt 0.4999999 1
vt 0.4999999 0.5
vt 0.4499999 1
vt 0.4499999 0.5
vt 0.3999999 1
vt 0.3999999 0.5
vt 0.3499998 1
vt 0.3499998 0.5
vt 0.2999998 1
vt 0.2999998 0.5
vt 0.2499998 1
vt 0.2499998 0.5
vt 0.1999998 1
vt 0.1999998 0.5
vt 0.1499998 1
vt 0.1499998 0.5
vt 0.09999985 1
vt 0.09999985 0.5
vt 0.3910685 0.4441641
vt 0.3241641 0.4782536
vt 0.25 0.49
vt 0.1758359 0.4782536
vt 0.1089315 0.4441641
vt 0.05583592 0.3910685
vt 0.02174643 0.3241641
vt 0.01000001 0.25
vt 0.02174643 0.1758359
vt 0.05583592 0.1089315
vt 0.1089315 0.05583592
vt 0.1758359 0.02174643
vt 0.25 0.01000001
vt 0.3241641 0.02174643
vt 0.3910685 0.05583592
vt 0.4441641 0.1089315
vt 0.4782536 0.1758359
vt 0.49 0.25
vt 0.4782536 0.3241641
vt 0.4441641 0.3910685
vt 0.04999984 1
vt 0.04999984 0.5
vt -1.564622e-07 1
vt -1.564622e-07 0.5
vt 0.6758359 0.4782536
vt 0.75 0.49
vt 0.8241641 0.4782536
vt 0.8910685 0.4441641
vt 0.944164 0.3910685
vt 0.9782536 0.3241641
vt 0.99 0.25
vt 0.9782536 0.1758359
vt 0.944164 0.1089315
vt 0.8910685 0.05583593
vt 0.8241641 0.02174643
vt 0.75 0.01000001
vt 0.6758359 0.02174643
vt 0.6089315 0.05583593
vt 0.555836 0.1089315
vt 0.5217464 0.1758359
vt 0.51 0.25
vt 0.5217464 0.3241641
vt 0.555836 0.3910685
vt 0.6089315 0.4441641
vt 0.3910685 0.4441641
vt 0.1089315 0.4441641
vt 0.05583593 0.3910685
vt 0.05583593 0.1089315
vt 0.1089315 0.05583593
vt 0.3910685 0.05583593
vt 0.4441641 0.1089315
vt 0.4441641 0.3910685
vn -1 0 0
vn 0 1 0
vn 1 0 0
vn 0 -1 0
vn 0 0 -1
vn 0 0 1
vn 0.1512751 0.9551152 0.2546974
vn 0.4390185 0.8616217 0.2546974
vn 0.6837869 0.683787 0.2546974
vn 0.8616217 0.4390185 0.2546974
vn 0.9551152 0.1512753 0.2546974
vn 0.9551152 -0.1512753 0.2546974
vn 0.8616217 -0.4390185 0.2546974
vn 0.6837869 -0.683787 0.2546974
vn 0.4390185 -0.8616217 0.2546974
vn 0.1512751 -0.9551152 0.2546974
vn -0.1512751 -0.9551152 0.2546974
vn -0.4390185 -0.8616217 0.2546974
vn -0.6837869 -0.683787 0.2546974
vn -0.8616217 -0.4390185 0.2546974
vn -0.9551152 -0.1512753 0.2546974
vn -0.9551152 0.1512753 0.2546974
vn -0.8616217 0.4390185 0.2546974
vn -0.6837869 0.683787 0.2546974
vn 1.471593e-07 0 1
vn -0.4390185 0.8616217 0.2546974
vn -0.1512751 0.9551152 0.2546974
vn 2.444169e-08 0 -1
vn 0.1564343 0.9876884 0
vn 0.4539906 0.8910065 0
vn 0.7071068 0.7071068 0
vn 0.8910066 0.4539905 0
vn 0.9876884 0.1564343 0
vn 0.9876884 -0.1564343 0
vn 0.8910066 -0.4539905 0
vn 0.7071068 -0.7071068 0
vn 0.4539906 -0.8910065 0
vn 0.1564343 -0.9876884 0
vn -0.1564343 -0.9876884 0
vn -0.4539906 -0.8910065 0
vn -0.7071068 -0.7071068 0
vn -0.8910066 -0.4539905 0
vn -0.9876884 -0.1564343 0
vn -0.9876884 0.1564343 0
vn -0.8910066 0.4539905 0
vn -0.7071068 0.7071068 0
vn 2.328382e-09 0 1
vn -0.4539906 0.8910065 0
vn -0.1564343 0.9876884 0
vn -6.985145e-09 0 -1
f 1/1/1 2/2/1 3/3/1
f 1/1/1 3/3/1 4/4/1
f 4/4/2 3/3/2 5/5/2
f 4/4/2 5/5/2 6/6/2
f 6/6/3 5/5/3 7/7/3
f 6/6/3 7/7/3 8/8/3
f 8/8/4 7/7/4 2/9/4
f 8/8/4 2/9/4 1/10/4
f 4/11/5 6/6/5 8/8/5
f 4/11/5 8/8/5 1/12/5
f 5/5/6 3/13/6 2/14/6
f 5/5/6 2/14/6 7/7/6
f 9/15/7 10/16/7 11/17/7
f 9/15/7 11/17/7 12/18/7
f 12/18/8 11/17/8 13/19/8
f 12/18/8 13/19/8 14/20/8
f 14/20/9 13/19/9 15/21/9
f 14/20/9 15/21/9 16/22/9
f 16/22/10 15/21/10 17/23/10
f 16/22/10 17/23/10 18/24/10
f 18/24/11 17/23/11 19/25/11
f 18/24/11 19/25/11 20/26/11
f 20/26/12 19/25/12 21/27/12
f 20/26/12 21/27/12 22/28/12
f 22/28/13 21/27/13 23/29/13
f 22/28/13 23/29/13 24/30/13
f 24/30/14 23/29/14 25/31/14
f 24/30/14 25/31/14 26/32/14
f 26/32/15 25/31/15 27/33/15
f 26/32/15 27/33/15 28/34/15
f 28/34/16 27/33/16 29/35/16
f 28/34/16 29/35/16 30/36/16
f 30/36/17 29/35/17 31/37/17
f 30/36/17 31/37/17 32/38/17
f 32/38/18 31/37/18 33/39/18
f 32/38/18 33/39/18 34/40/18
f 34/40/19 33/39/19 35/41/19
f 34/40/19 35/41/19 36/42/19
f 36/42/20 35/41/20 37/43/20
f 36/42/20 37/43/20 38/44/20
f 38/44/21 37/43/21 39/45/21
f 38/44/21 39/45/21 40/46/21
f 40/46/22 39/45/22 41/47/22
f 40/46/22 41/47/22 42/48/22
f 42/48/23 41/47/23 43/49/23
f 42/48/23 43/49/23 44/50/23
f 44/50/24 43/49/24 45/51/24
f 44/50/24 45/51/24 46/52/24
f 13/53/25 11/54/25 10/55/25
f 10/55/25 47/56/25 45/57/25
f 45/57/25 43/58/25 41/59/25
f 41/59/25 39/60/25 37/61/25
f 37/61/25 35/62/25 33/63/25
f 33/63/25 31/64/25 29/65/25
f 29/65/25 27/66/25 25/67/25
f 25/67/25 23/68/25 21/69/25
f 21/69/25 19/70/25 17/71/25
f 17/71/25 15/72/25 13/53/25
f 13/53/25 10/55/25 45/57/25
f 45/57/25 41/59/25 37/61/25
f 37/61/25 33/63/25 29/65/25
f 29/65/25 25/67/25 21/69/25
f 21/69/25 17/71/25 13/53/25
f 13/53/25 45/57/25 37/61/25
f 37/61/25 29/65/25 21/69/25
f 37/61/25 21/69/25 13/53/25
f 46/52/26 45/51/26 47/73/26
f 46/52/26 47/73/26 48/74/26
f 48/74/27 47/73/27 10/75/27
f 48/74/27 10/75/27 9/76/27
f 48/77/28 9/78/28 12/79/28
f 12/79/28 14/80/28 16/81/28
f 16/81/28 18/82/28 20/83/28
f 20/83/28 22/84/28 24/85/28
f 24/85/28 26/86/28 28/87/28
f 28/87/28 30/88/28 32/89/28
f 32/89/28 34/90/28 36/91/28
f 36/91/28 38/92/28 40/93/28
f 40/93/28 42/94/28 44/95/28
f 44/95/28 46/96/28 48/77/28
f 48/77/28 12/79/28 16/81/28
f 16/81/28 20/83/28 24/85/28
f 24/85/28 28/87/28 32/89/28
f 32/89/28 36/91/28 40/93/28
f 40/93/28 44/95/28 48/77/28
f 48/77/28 16/81/28 24/85/28
f 24/85/28 32/89/28 40/93/28
f 24/85/28 40/93/28 48/77/28
f 49/1/1 50/2/1 51/3/1
f 49/1/1 51/3/1 52/4/1
f 52/4/2 51/3/2 53/5/2
f 52/4/2 53/5/2 54/6/2
f 54/6/3 53/5/3 55/7/3
f 54/6/3 55/7/3 56/8/3
f 56/8/4 55/7/4 50/9/4
f 56/8/4 50/9/4 49/10/4
f 52/11/5 54/6/5 56/8/5
f 52/11/5 56/8/5 49/12/5
f 53/5/6 51/13/6 50/14/6
f 53/5/6 50/14/6 55/7/6
f 57/15/7 58/16/7 59/17/7
f 57/15/7 59/17/7 60/18/7
f 60/18/8 59/17/8 61/19/8
f 60/18/8 61/19/8 62/20/8
f 62/20/9 61/19/9 63/21/9
f 62/20/9 63/21/9 64/22/9
f 64/22/10 63/21/10 65/23/10
f 64/22/10 65/23/10 66/24/10
f 66/24/11 65/23/11 67/25/11
f 66/24/11 67/25/11 68/26/11
f 68/26/12 67/25/12 69/27/12
f 68/26/12 69/27/12 70/28/12
f 70/28/13 69/27/13 71/29/13
f 70/28/13 71/29/13 72/30/13
f 72/30/14 71/29/14 73/31/14
f 72/30/14 73/31/14 74/32/14
f 74/32/15 73/31/15 75/33/15
f 74/32/15 75/33/15 76/34/15
f 76/34/16 75/33/16 77/35/16
f 76/34/16 77/35/16 78/36/16
f 78/36/17 77/35/17 79/37/17
f 78/36/17 79/37/17 80/38/17
f 80/38/18 79/37/18 81/39/18
f 80/38/18 81/39/18 82/40/18
f 82/40/19 81/39/19 83/41/19
f 82/40/19 83/41/19 84/42/19
f 84/42/20 83/41/20 85/43/20
f 84/42/20 85/43/20 86/44/20
f 86/44/21 85/43/21 87/45/21
f 86/44/21 87/45/21 88/46/21
f 88/46/22 87/45/22 89/47/22
f 88/46/22 89/47/22 90/48/22
f 90/48/23 89/47/23 91/49/23
f 90/48/23 91/49/23 92/50/23
f 92/50/24 91/49/24 93/51/24
f 92/50/24 93/51/24 94/52/24
f 61/53/25 59/54/25 58/55/25
f 58/55/25 95/56/25 93/57/25
f 93/57/25 91/58/25 89/59/25
f 89/59/25 87/60/25 85/61/25
f 85/61/25 83/62/25 81/63/25
f 81/63/25 79/64/25 77/65/25
f 77/65/25 75/66/25 73/67/25
f 73/67/25 71/68/25 69/69/25
f 69/69/25 67/70/25 65/71/25
f 65/71/25 63/72/25 61/53/25
f 61/53/25 58/55/25 93/57/25
f 93/57/25 89/59/25 85/61/25
f 85/61/25 81/63/25 77/65/25
f 77/65/25 73/67/25 69/69/25
f 69/69/25 65/71/25 61/53/25
f 61/53/25 93/57/25 85/61/25
f 85/61/25 77/65/25 69/69/25
f 85/61/25 69/69/25 61/53/25
f 94/52/26 93/51/26 95/73/26
f 94/52/26 95/73/26 96/74/26
f 96/74/27 95/73/27 58/75/27
f 96/74/27 58/75/27 57/76/27
f 96/77/28 57/78/28 60/79/28
f 60/79/28 62/80/28 64/81/28
f 64/81/28 66/82/28 68/83/28
f 68/83/28 70/84/28 72/85/28
f 72/85/28 74/86/28 76/87/28
f 76/87/28 78/88/28 80/89/28
f 80/89/28 82/90/28 84/91/28
f 84/91/28 86/92/28 88/93/28
f 88/93/28 90/94/28 92/95/28
f 92/95/28 94/96/28 96/77/28
f 96/77/28 60/79/28 64/81/28
f 64/81/28 68/83/28 72/85/28
f 72/85/28 76/87/28 80/89/28
f 80/89/28 84/91/28 88/93/28
f 88/93/28 92/95/28 96/77/28
f 96/77/28 64/81/28 72/85/28
f 72/85/28 80/89/28 88/93/28
f 72/85/28 88/93/28 96/77/28
f 97/1/1 98/2/1 99/3/1
f 97/1/1 99/3/1 100/4/1
f 100/4/2 99/3/2 101/5/2
f 100/4/2 101/5/2 102/6/2
f 102/6/3 101/5/3 103/7/3
f 102/6/3 103/7/3 104/8/3
f 104/8/4 103/7/4 98/9/4
f 104/8/4 98/9/4 97/10/4
f 100/11/5 102/6/5 104/8/5
f 100/11/5 104/8/5 97/12/5
f 101/5/6 99/13/6 98/14/6
f 101/5/6 98/14/6 103/7/6
f 105/15/7 106/16/7 107/17/7
f 105/15/7 107/17/7 108/18/7
f 108/18/8 107/17/8 109/19/8
f 108/18/8 109/19/8 110/20/8
f 110/20/9 109/19/9 111/21/9
f 110/20/9 111/21/9 112/22/9
f 112/22/10 111/21/10 113/23/10
f 112/22/10 113/23/10 114/24/10
f 114/24/11 113/23/11 115/25/11
f 114/24/11 115/25/11 116/26/11
f 116/26/12 115/25/12 117/27/12
f 116/26/12 117/27/12 118/28/12
f 118/28/13 117/27/13 119/29/13
f 118/28/13 119/29/13 120/30/13
f 120/30/14 119/29/14 121/31/14
f 120/30/14 121/31/14 122/32/14
f 122/32/15 121/31/15 123/33/15
f 122/32/15 123/33/15 124/34/15
f 124/34/16 123/33/16 125/35/16
f 124/34/16 125/35/16 126/36/16
f 126/36/17 125/35/17 127/37/17
f 126/36/17 127/37/17 128/38/17
f 128/38/18 127/37/18 129/39/18
f 128/38/18 129/39/18 130/40/18
f 130/40/19 129/39/19 131/41/19
f 130/40/19 131/41/19 132/42/19
f 132/42/20 131/41/20 133/43/20
f 132/42/20 133/43/20 134/44/20
f 134/44/21 133/43/21 135/45/21
f 134/44/21 135/45/21 136/46/21
f 136/46/22 135/45/22 137/47/22
f 136/46/22 137/47/22 138/48/22
f 138/48/23 137/47/23 139/49/23
f 138/48/23 139/49/23 140/50/23
f 140/50/24 139/49/24 141/51/24
f 140/50/24 141/51/24 142/52/24
f 109/53/25 107/54/25 106/55/25
f 106/55/25 143/56/25 141/57/25
f 141/57/25 139/58/25 137/59/25
f 137/59/25 135/60/25 133/61/25
f 133/61/25 131/62/25 129/63/25
f 129/63/25 127/64/25 125/65/25
f 125/65/25 123/66/25 121/67/25
f 121/67/25 119/68/25 117/69/25
f 117/69/25 115/70/25 113/71/25
f 113/71/25 111/72/25 109/53/25
f 109/53/25 106/55/25 141/57/25
f 141/57/25 137/59/25 133/61/25
f 133/61/25 129/63/25 125/65/25
f 125/65/25 121/67/25 117/69/25
f 117/69/25 113/71/25 109/53/25
f 109/53/25 141/57/25 133/61/25
f 133/61/25 125/65/25 117/69/25
f 133/61/25 117/69/25 109/53/25
f 142/52/26 141/51/26 143/73/26
f 142/52/26 143/73/26 144/74/26
f 144/74/27 143/73/27 106/75/27
f 144/74/27 106/75/27 105/76/27
f 144/77/28 105/78/28 108/79/28
f 108/79/28 110/80/28 112/81/28
f 112/81/28 114/82/28 116/83/28
f 116/83/28 118/84/28 120/85/28
f 120/85/28 122/86/28 124/87/28
f 124/87/28 126/88/28 128/89/28
f 128/89/28 130/90/28 132/91/28
f 132/91/28 134/92/28 136/93/28
f 136/93/28 138/94/28 140/95/28
f 140/95/28 142/96/28 144/77/28
f 144/77/28 108/79/28 112/81/28
f 112/81/28 116/83/28 120/85/28
f 120/85/28 124/87/28 128/89/28
f 128/89/28 132/91/28 136/93/28
f 136/93/28 140/95/28 144/77/28
f 144/77/28 112/81/28 120/85/28
f 120/85/28 128/89/28 136/93/28
f 120/85/28 136/93/28 144/77/28
f 145/1/1 146/2/1 147/3/1
f 145/1/1 147/3/1 148/4/1
f 148/4/2 147/3/2 149/5/2
f 148/4/2 149/5/2 150/6/2
f 150/6/3 149/5/3 151/7/3
f 150/6/3 151/7/3 152/8/3
f 152/8/4 151/7/4 146/9/4
f 152/8/4 146/9/4 145/10/4
f 148/11/5 150/6/5 152/8/5
f 148/11/5 152/8/5 145/12/5
f 149/5/6 147/13/6 146/14/6
f 149/5/6 146/14/6 151/7/6
f 153/15/7 154/16/7 155/17/7
f 153/15/7 155/17/7 156/18/7
f 156/18/8 155/17/8 157/19/8
f 156/18/8 157/19/8 158/20/8
f 158/20/9 157/19/9 159/21/9
f 158/20/9 159/21/9 160/22/9
f 160/22/10 159/21/10 161/23/10
f 160/22/10 161/23/10 162/24/10
f 162/24/11 161/23/11 163/25/11
f 162/24/11 163/25/11 164/26/11
f 164/26/12 163/25/12 165/27/12
f 164/26/12 165/27/12 166/28/12
f 166/28/13 165/27/13 167/29/13
f 166/28/13 167/29/13 168/30/13
f 168/30/14 167/29/14 169/31/14
f 168/30/14 169/31/14 170/32/14
f 170/32/15 169/31/15 171/33/15
f 170/32/15 171/33/15 172/34/15
f 172/34/16 171/33/16 173/35/16
f 172/34/16 173/35/16 174/36/16
f 174/36/17 173/35/17 175/37/17
f 174/36/17 175/37/17 176/38/17
f 176/38/18 175/37/18 177/39/18
f 176/38/18 177/39/18 178/40/18
f 178/40/19 177/39/19 179/41/19
f 178/40/19 179/41/19 180/42/19
f 180/42/20 179/41/20 181/43/20
f 180/42/20 181/43/20 182/44/20
f 182/44/21 181/43/21 183/45/21
f 182/44/21 183/45/21 184/46/21
f 184/46/22 183/45/22 185/47/22
f 184/46/22 185/47/22 186/48/22
f 186/48/23 185/47/23 187/49/23
f 186/48/23 187/49/23 188/50/23
f 188/50/24 187/49/24 189/51/24
f 188/50/24 189/51/24 190/52/24
f 157/53/25 155/54/25 154/55/25
f 154/55/25 191/56/25 189/57/25
f 189/57/25 187/58/25 185/59/25
f 185/59/25 183/60/25 181/61/25
f 181/61/25 179/62/25 177/63/25
f 177/63/25 175/64/25 173/65/25
f 173/65/25 171/66/25 169/67/25
f 169/67/25 167/68/25 165/69/25
f 165/69/25 163/70/25 161/71/25
f 161/71/25 159/72/25 157/53/25
f 157/53/25 154/55/25 189/57/25
f 189/57/25 185/59/25 181/61/25
f 181/61/25 177/63/25 173/65/25
f 173/65/25 169/67/25 165/69/25
f 165/69/25 161/71/25 157/53/25
f 157/53/25 189/57/25 181/61/25
f 181/61/25 173/65/25 165/69/25
f 181/61/25 165/69/25 157/53/25
f 190/52/26 189/51/26 191/73/26
f 190/52/26 191/73/26 192/74/26
f 192/74/27 191/73/27 154/75/27
f 192/74/27 154/75/27 153/76/27
f 192/77/28 153/78/28 156/79/28
f 156/79/28 158/80/28 160/81/28
f 160/81/28 162/82/28 164/83/28
f 164/83/28 166/84/28 168/85/28
f 168/85/28 170/86/28 172/87/28
f 172/87/28 174/88/28 176/89/28
f 176/89/28 178/90/28 180/91/28
f 180/91/28 182/92/28 184/93/28
f 184/93/28 186/94/28 188/95/28
f 188/95/28 190/96/28 192/77/28
f 192/77/28 156/79/28 160/81/28
f 160/81/28 164/83/28 168/85/28
f 168/85/28 172/87/28 176/89/28
f 176/89/28 180/91/28 184/93/28
f 184/93/28 188/95/28 192/77/28
f 192/77/28 160/81/28 168/85/28
f 168/85/28 176/89/28 184/93/28
f 168/85/28 184/93/28 192/77/28
f 193/15/29 194/16/29 195/17/29
f 193/15/29 195/17/29 196/18/29
f 196/18/30 195/17/30 197/19/30
f 196/18/30 197/19/30 198/20/30
f 198/20/31 197/19/31 199/21/31
f 198/20/31 199/21/31 200/22/31
f 200/22/32 199/21/32 201/23/32
f 200/22/32 201/23/32 202/24/32
f 202/24/33 201/23/33 203/25/33
f 202/24/33 203/25/33 204/26/33
f 204/26/34 203/25/34 205/27/34
f 204/26/34 205/27/34 206/28/34
f 206/28/35 205/27/35 207/29/35
f 206/28/35 207/29/35 208/30/35
f 208/30/36 207/29/36 209/31/36
f 208/30/36 209/31/36 210/32/36
f 210/32/37 209/31/37 211/33/37
f 210/32/37 211/33/37 212/34/37
f 212/34/38 211/33/38 213/35/38
f 212/34/38 213/35/38 214/36/38
f 214/36/39 213/35/39 215/37/39
f 214/36/39 215/37/39 216/38/39
f 216/38/40 215/37/40 217/39/40
f 216/38/40 217/39/40 218/40/40
f 218/40/41 217/39/41 219/41/41
f 218/40/41 219/41/41 220/42/41
f 220/42/42 219/41/42 221/43/42
f 220/42/42 221/43/42 222/44/42
f 222/44/43 221/43/43 223/45/43
f 222/44/43 223/45/43 224/46/43
f 224/46/44 223/45/44 225/47/44
f 224/46/44 225/47/44 226/48/44
f 226/48/45 225/47/45 227/49/45
f 226/48/45 227/49/45 228/50/45
f 228/50/46 227/49/46 229/51/46
f 228/50/46 229/51/46 230/52/46
f 197/97/47 195/54/47 194/55/47
f 194/55/47 231/56/47 229/98/47
f 229/98/47 227/99/47 225/59/47
f 225/59/47 223/60/47 221/61/47
f 221/61/47 219/100/47 217/101/47
f 217/101/47 215/64/47 213/65/47
f 213/65/47 211/66/47 209/102/47
f 209/102/47 207/103/47 205/69/47
f 205/69/47 203/70/47 201/71/47
f 201/71/47 199/104/47 197/97/47
f 197/97/47 194/55/47 229/98/47
f 229/98/47 225/59/47 221/61/47
f 221/61/47 217/101/47 213/65/47
f 213/65/47 209/102/47 205/69/47
f 205/69/47 201/71/47 197/97/47
f 197/97/47 229/98/47 221/61/47
f 221/61/47 213/65/47 205/69/47
f 221/61/47 205/69/47 197/97/47
f 230/52/48 229/51/48 231/73/48
f 230/52/48 231/73/48 232/74/48
f 232/74/49 231/73/49 194/75/49
f 232/74/49 194/75/49 193/76/49
f 232/77/50 193/78/50 196/79/50
f 196/79/50 198/80/50 200/81/50
f 200/81/50 202/82/50 204/83/50
f 204/83/50 206/84/50 208/85/50
f 208/85/50 210/86/50 212/87/50
f 212/87/50 214/88/50 216/89/50
f 216/89/50 218/90/50 220/91/50
f 220/91/50 222/92/50 224/93/50
f 224/93/50 226/94/50 228/95/50
f 228/95/50 230/96/50 232/77/50
f 232/77/50 196/79/50 200/81/50
f 200/81/50 204/83/50 208/85/50
f 208/85/50 212/87/50 216/89/50
f 216/89/50 220/91/50 224/93/50
f 224/93/50 228/95/50 232/77/50
f 232/77/50 200/81/50 208/85/50
f 208/85/50 216/89/50 224/93/50
f 208/85/50 224/93/50 232/77/50
f 233/15/29 234/16/29 235/17/29
f 233/15/29 235/17/29 236/18/29
f 236/18/30 235/17/30 237/19/30
f 236/18/30 237/19/30 238/20/30
f 238/20/31 237/19/31 239/21/31
f 238/20/31 239/21/31 240/22/31
f 240/22/32 239/21/32 241/23/32
f 240/22/32 241/23/32 242/24/32
f 242/24/33 241/23/33 243/25/33
f 242/24/33 243/25/33 244/26/33
f 244/26/34 243/25/34 245/27/34
f 244/26/34 245/27/34 246/28/34
f 246/28/35 245/27/35 247/29/35
f 246/28/35 247/29/35 248/30/35
f 248/30/36 247/29/36 249/31/36
f 248/30/36 249/31/36 250/32/36
f 250/32/37 249/31/37 251/33/37
f 250/32/37 251/33/37 252/34/37
f 252/34/38 251/33/38 253/35/38
f 252/34/38 253/35/38 254/36/38
f 254/36/39 253/35/39 255/37/39
f 254/36/39 255/37/39 256/38/39
f 256/38/40 255/37/40 257/39/40
f 256/38/40 257/39/40 258/40/40
f 258/40/41 257/39/41 259/41/41
f 258/40/41 259/41/41 260/42/41
f 260/42/42 259/41/42 261/43/42
f 260/42/42 261/43/42 262/44/42
f 262/44/43 261/43/43 263/45/43
f 262/44/43 263/45/43 264/46/43
f 264/46/44 263/45/44 265/47/44
f 264/46/44 265/47/44 266/48/44
f 266/48/45 265/47/45 267/49/45
f 266/48/45 267/49/45 268/50/45
f 268/50/46 267/49/46 269/51/46
f 268/50/46 269/51/46 270/52/46
f 237/97/47 235/54/47 234/55/47
f 234/55/47 271/56/47 269/98/47
f 269/98/47 267/99/47 265/59/47
f 265/59/47 263/60/47 261/61/47
f 261/61/47 259/100/47 257/101/47
f 257/101/47 255/64/47 253/65/47
f 253/65/47 251/66/47 249/102/47
f 249/102/47 247/103/47 245/69/47
f 245/69/47 243/70/47 241/71/47
f 241/71/47 239/104/47 237/97/47
f 237/97/47 234/55/47 269/98/47
f 269/98/47 265/59/47 261/61/47
f 261/61/47 257/101/47 253/65/47
f 253/65/47 249/102/47 245/69/47
f 245/69/47 241/71/47 237/97/47
f 237/97/47 269/98/47 261/61/47
f 261/61/47 253/65/47 245/69/47
f 261/61/47 245/69/47 237/97/47
f 270/52/48 269/51/48 271/73/48
f 270/52/48 271/73/48 272/74/48
f 272/74/49 271/73/49 234/75/49
f 272/74/49 234/75/49 233/76/49
f 272/77/50 233/78/50 236/79/50
f 236/79/50 238/80/50 240/81/50
f 240/81/50 242/82/50 244/83/50
f 244/83/50 246/84/50 248/85/50
f 248/85/50 250/86/50 252/87/50
f 252/87/50 254/88/50 256/89/50
f 256/89/50 258/90/50 260/91/50
f 260/91/50 262/92/50 264/93/50
f 264/93/50 266/94/50 268/95/50
f 268/95/50 270/96/50 272/77/50
f 272/77/50 236/79/50 240/81/50
f 240/81/50 244/83/50 248/85/50
f 248/85/50 252/87/50 256/89/50
f 256/89/50 260/91/50 264/93/50
f 264/93/50 268/95/50 272/77/50
f 272/77/50 240/81/50 248/85/50
f 248/85/50 256/89/50 264/93/50
f 248/85/50 264/93/50 272/77/50
f 273/15/29 274/16/29 275/17/29
f 273/15/29 275/17/29 276/18/29
f 276/18/30 275/17/30 277/19/30
f 276/18/30 277/19/30 278/20/30
f 278/20/31 277/19/31 279/21/31
f 278/20/31 279/21/31 280/22/31
f 280/22/32 279/21/32 281/23/32
f 280/22/32 281/23/32 282/24/32
f 282/24/33 281/23/33 283/25/33
f 282/24/33 283/25/33 284/26/33
f 284/26/34 283/25/34 285/27/34
f 284/26/34 285/27/34 286/28/34
f 286/28/35 285/27/35 287/29/35
f 286/28/35 287/29/35 288/30/35
f 288/30/36 287/29/36 289/31/36
f 288/30/36 289/31/36 290/32/36
f 290/32/37 289/31/37 291/33/37
f 290/32/37 291/33/37 292/34/37
f 292/34/38 291/33/38 293/35/38
f 292/34/38 293/35/38 294/36/38
f 294/36/39 293/35/39 295/37/39
f 294/36/39 295/37/39 296/38/39
f 296/38/40 295/37/40 297/39/40
f 296/38/40 297/39/40 298/40/40
f 298/40/41 297/39/41 299/41/41
f 298/40/41 299/41/41 300/42/41
f 300/42/42 299/41/42 301/43/42
f 300/42/42 301/43/42 302/44/42
f 302/44/43 301/43/43 303/45/43
f 302/44/43 303/45/43 304/46/43
f 304/46/44 303/45/44 305/47/44
f 304/46/44 305/47/44 306/48/44
f 306/48/45 305/47/45 307/49/45
f 306/48/45 307/49/45 308/50/45
f 308/50/46 307/49/46 309/51/46
f 308/50/46 309/51/46 310/52/46
f 277/97/47 275/54/47 274/55/47
f 274/55/47 311/56/47 309/98/47
f 309/98/47 307/99/47 305/59/47
f 305/59/47 303/60/47 301/61/47
f 301/61/47 299/100/47 297/101/47
f 297/101/47 295/64/47 293/65/47
f 293/65/47 291/66/47 289/102/47
f 289/102/47 287/103/47 285/69/47
f 285/69/47 283/70/47 281/71/47
f 281/71/47 279/104/47 277/97/47
f 277/97/47 274/55/47 309/98/47
f 309/98/47 305/59/47 301/61/47
f 301/61/47 297/101/47 293/65/47
f 293/65/47 289/102/47 285/69/47
f 285/69/47 281/71/47 277/97/47
f 277/97/47 309/98/47 301/61/47
f 301/61/47 293/65/47 285/69/47
f 301/61/47 285/69/47 277/97/47
f 310/52/48 309/51/48 311/73/48
f 310/52/48 311/73/48 312/74/48
f 312/74/49 311/73/49 274/75/49
f 312/74/49 274/75/49 273/76/49
f 312/77/50 273/78/50 276/79/50
f 276/79/50 278/80/50 280/81/50
f 280/81/50 282/82/50 284/83/50
f 284/83/50 286/84/50 288/85/50
f 288/85/50 290/86/50 292/87/50
f 292/87/50 294/88/50 296/89/50
f 296/89/50 298/90/50 300/91/50
f 300/91/50 302/92/50 304/93/50
f 304/93/50 306/94/50 308/95/50
f 308/95/50 310/96/50 312/77/50
f 312/77/50 276/79/50 280/81/50
f 280/81/50 284/83/50 288/85/50
f 288/85/50 292/87/50 296/89/50
f 296/89/50 300/91/50 304/93/50
f 304/93/50 308/95/50 312/77/50
f 312/77/50 280/81/50 288/85/50
f 288/85/50 296/89/50 304/93/50
f 288/85/50 304/93/50 312/77/50
f 313/15/29 314/16/29 315/17/29
f 313/15/29 315/17/29 316/18/29
f 316/18/30 315/17/30 317/19/30
f 316/18/30 317/19/30 318/20/30
f 318/20/31 317/19/31 319/21/31
f 318/20/31 319/21/31 320/22/31
f 320/22/32 319/21/32 321/23/32
f 320/22/32 321/23/32 322/24/32
f 322/24/33 321/23/33 323/25/33
f 322/24/33 323/25/33 324/26/33
f 324/26/34 323/25/34 325/27/34
f 324/26/34 325/27/34 326/28/34
f 326/28/35 325/27/35 327/29/35
f 326/28/35 327/29/35 328/30/35
f 328/30/36 327/29/36 329/31/36
f 328/30/36 329/31/36 330/32/36
f 330/32/37 329/31/37 331/33/37
f 330/32/37 331/33/37 332/34/37
f 332/34/38 331/33/38 333/35/38
f 332/34/38 333/35/38 334/36/38
f 334/36/39 333/35/39 335/37/39
f 334/36/39 335/37/39 336/38/39
f 336/38/40 335/37/40 337/39/40
f 336/38/40 337/39/40 338/40/40
f 338/40/41 337/39/41 339/41/41
f 338/40/41 339/41/41 340/42/41
f 340/42/42 339/41/42 341/43/42
f 340/42/42 341/43/42 342/44/42
f 342/44/43 341/43/43 343/45/43
f 342/44/43 343/45/43 344/46/43
f 344/46/44 343/45/44 345/47/44
f 344/46/44 345/47/44 346/48/44
f 346/48/45 345/47/45 347/49/45
f 346/48/45 347/49/45 348/50/45
f 348/50/46 347/49/46 349/51/46
f 348/50/46 349/51/46 350/52/46
f 317/97/47 315/54/47 314/55/47
f 314/55/47 351/56/47 349/98/47
f 349/98/47 347/99/47 345/59/47
f 345/59/47 343/60/47 341/61/47
f 341/61/47 339/100/47 337/101/47
f 337/101/47 335/64/47 333/65/47
f 333/65/47 331/66/47 329/102/47
f 329/102/47 327/103/47 325/69/47
f 325/69/47 323/70/47 321/71/47
f 321/71/47 319/104/47 317/97/47
f 317/97/47 314/55/47 349/98/47
f 349/98/47 345/59/47 341/61/47
f 341/61/47 337/101/47 333/65/47
f 333/65/47 329/102/47 325/69/47
f 325/69/47 321/71/47 317/97/47
f 317/97/47 349/98/47 341/61/47
f 341/61/47 333/65/47 325/69/47
f 341/61/47 325/69/47 317/97/47
f 350/52/48 349/51/48 351/73/48
f 350/52/48 351/73/48 352/74/48
f 352/74/49 351/73/49 314/75/49
f 352/74/49 314/75/49 313/76/49
f 352/77/50 313/78/50 316/79/50
f 316/79/50 318/80/50 320/81/50
f 320/81/50 322/82/50 324/83/50
f 324/83/50 326/84/50 328/85/50
f 328/85/50 330/86/50 332/87/50
f 332/87/50 334/88/50 336/89/50
f 336/89/50 338/90/50 340/91/50
f 340/91/50 342/92/50 344/93/50
f 344/93/50 346/94/50 348/95/50
f 348/95/50 350/96/50 352/77/50
f 352/77/50 316/79/50 320/81/50
f 320/81/50 324/83/50 328/85/50
f 328/85/50 332/87/50 336/89/50
f 336/89/50 340/91/50 344/93/50
f 344/93/50 348/95/50 352/77/50
f 352/77/50 320/81/50 328/85/50
f 328/85/50 336/89/50 344/93/50
f 328/85/50 344/93/50 352/77/50
