# Generated from the accepted BlenderMCP scene.
v -8.65 1.45 0
v -8.65 1.45 0.9
v -8.557295 1.435317 0.9
v -8.557295 1.435317 0
v -8.473664 1.392705 0.9
v -8.473664 1.392705 0
v -8.407294 1.326336 0.9
v -8.407294 1.326336 0
v -8.364682 1.242705 0.9
v -8.364682 1.242705 0
v -8.349999 1.15 0.9
v -8.349999 1.15 0
v -8.364682 1.057295 0.9
v -8.364682 1.057295 0
v -8.407294 0.9736644 0.9
v -8.407294 0.9736644 0
v -8.473664 0.9072949 0.9
v -8.473664 0.9072949 0
v -8.557295 0.864683 0.9
v -8.557295 0.864683 0
v -8.65 0.85 0.9
v -8.65 0.85 0
v -8.742704 0.864683 0.9
v -8.742704 0.864683 0
v -8.826335 0.9072949 0.9
v -8.826335 0.9072949 0
v -8.892705 0.9736644 0.9
v -8.892705 0.9736644 0
v -8.935317 1.057295 0.9
v -8.935317 1.057295 0
v -8.95 1.15 0.9
v -8.95 1.15 0
v -8.935317 1.242705 0.9
v -8.935317 1.242705 0
v -8.892705 1.326336 0.9
v -8.892705 1.326336 0
v -8.826335 1.392705 0.9
v -8.826335 1.392705 0
v -8.742704 1.435317 0.9
v -8.742704 1.435317 0
vt 1 0.5
vt 1 1
vt 0.95 1
vt 0.95 0.5
vt 0.9 1
vt 0.9 0.5
vt 0.85 1
vt 0.85 0.5
vt 0.8 1
vt 0.8 0.5
vt 0.7499999 1
vt 0.7499999 0.5
vt 0.6999999 1
vt 0.6999999 0.5
vt 0.6499999 1
vt 0.6499999 0.5
vt 0.5999999 1
vt 0.5999999 0.5
vt 0.5499999 1
vt 0.5499999 0.5
vt 0.4999999 1
vt 0.4999999 0.5
vt 0.4499999 1
vt 0.4499999 0.5
vt 0.3999999 1
vt 0.3999999 0.5
vt 0.3499998 1
vt 0.3499998 0.5
vt 0.2999998 1
vt 0.2999998 0.5
vt 0.2499998 1
vt 0.2499998 0.5
vt 0.1999998 1
vt 0.1999998 0.5
vt 0.1499998 1
vt 0.1499998 0.5
vt 0.09999985 1
vt 0.09999985 0.5
vt 0.3910685 0.4441641
vt 0.3241641 0.4782535
vt 0.25 0.49
vt 0.1758359 0.4782535
vt 0.1089316 0.4441641
vt 0.05583593 0.3910685
vt 0.02174644 0.3241641
vt 0.01000001 0.25
vt 0.02174644 0.1758359
vt 0.05583593 0.1089316
vt 0.1089316 0.05583593
vt 0.1758359 0.02174644
vt 0.25 0.01000001
vt 0.3241641 0.02174644
vt 0.3910685 0.05583593
vt 0.4441641 0.1089316
vt 0.4782535 0.1758359
vt 0.49 0.25
vt 0.4782535 0.3241641
vt 0.4441641 0.3910685
vt 0.04999984 1
vt 0.04999984 0.5
vt -1.564622e-07 1
vt -1.564622e-07 0.5
vt 0.6758359 0.4782535
vt 0.75 0.49
vt 0.8241641 0.4782535
vt 0.8910685 0.4441641
vt 0.944164 0.3910685
vt 0.9782535 0.3241641
vt 0.99 0.25
vt 0.9782535 0.1758359
vt 0.944164 0.1089316
vt 0.8910685 0.05583593
vt 0.8241641 0.02174644
vt 0.75 0.01000001
vt 0.6758359 0.02174644
vt 0.6089315 0.05583593
vt 0.555836 0.1089316
vt 0.5217465 0.1758359
vt 0.51 0.25
vt 0.5217465 0.3241641
vt 0.555836 0.3910685
vt 0.6089315 0.4441641
vn 0.1564344 0.9876884 0
vn 0.4539906 0.8910065 0
vn 0.7071068 0.7071067 0
vn 0.8910065 0.4539907 0
vn 0.9876884 0.1564344 0
vn 0.9876884 -0.1564344 0
vn 0.8910065 -0.4539907 0
vn 0.7071068 -0.7071067 0
vn 0.4539906 -0.8910065 0
vn 0.1564344 -0.9876884 0
vn -0.1564344 -0.9876884 0
vn -0.4539906 -0.8910065 0
vn -0.7071068 -0.7071067 0
vn -0.8910065 -0.4539907 0
vn -0.9876884 -0.1564344 0
vn -0.9876884 0.1564344 0
vn -0.8910065 0.4539907 0
vn -0.7071068 0.7071067 0
vn 2.678954e-08 0 1
vn -0.4539906 0.8910065 0
vn -0.1564344 0.9876884 0
vn -1.339477e-08 0 -1
f 1/1/1 2/2/1 3/3/1
f 1/1/1 3/3/1 4/4/1
f 4/4/2 3/3/2 5/5/2
f 4/4/2 5/5/2 6/6/2
f 6/6/3 5/5/3 7/7/3
f 6/6/3 7/7/3 8/8/3
f 8/8/4 7/7/4 9/9/4
f 8/8/4 9/9/4 10/10/4
f 10/10/5 9/9/5 11/11/5
f 10/10/5 11/11/5 12/12/5
f 12/12/6 11/11/6 13/13/6
f 12/12/6 13/13/6 14/14/6
f 14/14/7 13/13/7 15/15/7
f 14/14/7 15/15/7 16/16/7
f 16/16/8 15/15/8 17/17/8
f 16/16/8 17/17/8 18/18/8
f 18/18/9 17/17/9 19/19/9
f 18/18/9 19/19/9 20/20/9
f 20/20/10 19/19/10 21/21/10
f 20/20/10 21/21/10 22/22/10
f 22/22/11 21/21/11 23/23/11
f 22/22/11 23/23/11 24/24/11
f 24/24/12 23/23/12 25/25/12
f 24/24/12 25/25/12 26/26/12
f 26/26/13 25/25/13 27/27/13
f 26/26/13 27/27/13 28/28/13
f 28/28/14 27/27/14 29/29/14
f 28/28/14 29/29/14 30/30/14
f 30/30/15 29/29/15 31/31/15
f 30/30/15 31/31/15 32/32/15
f 32/32/16 31/31/16 33/33/16
f 32/32/16 33/33/16 34/34/16
f 34/34/17 33/33/17 35/35/17
f 34/34/17 35/35/17 36/36/17
f 36/36/18 35/35/18 37/37/18
f 36/36/18 37/37/18 38/38/18
f 5/39/19 3/40/19 2/41/19
f 2/41/19 39/42/19 37/43/19
f 37/43/19 35/44/19 33/45/19
f 33/45/19 31/46/19 29/47/19
f 29/47/19 27/48/19 25/49/19
f 25/49/19 23/50/19 21/51/19
f 21/51/19 19/52/19 17/53/19
f 17/53/19 15/54/19 13/55/19
f 13/55/19 11/56/19 9/57/19
f 9/57/19 7/58/19 5/39/19
f 5/39/19 2/41/19 37/43/19
f 37/43/19 33/45/19 29/47/19
f 29/47/19 25/49/19 21/51/19
f 21/51/19 17/53/19 13/55/19
f 13/55/19 9/57/19 5/39/19
f 5/39/19 37/43/19 29/47/19
f 29/47/19 21/51/19 13/55/19
f 29/47/19 13/55/19 5/39/19
f 38/38/20 37/37/20 39/59/20
f 38/38/20 39/59/20 40/60/20
f 40/60/21 39/59/21 2/61/21
f 40/60/21 2/61/21 1/62/21
f 40/63/22 1/64/22 4/65/22
f 4/65/22 6/66/22 8/67/22
f 8/67/22 10/68/22 12/69/22
f 12/69/22 14/70/22 16/71/22
f 16/71/22 18/72/22 20/73/22
f 20/73/22 22/74/22 24/75/22
f 24/75/22 26/76/22 28/77/22
f 28/77/22 30/78/22 32/79/22
f 32/79/22 34/80/22 36/81/22
f 36/81/22 38/82/22 40/63/22
f 40/63/22 4/65/22 8/67/22
f 8/67/22 12/69/22 16/71/22
f 16/71/22 20/73/22 24/75/22
f 24/75/22 28/77/22 32/79/22
f 32/79/22 36/81/22 40/63/22
f 40/63/22 8/67/22 16/71/22
f 16/71/22 24/75/22 32/79/22
f 16/71/22 32/79/22 40/63/22
