# Generated from the accepted BlenderMCP scene.
v -1.108252 -11.46232 0
v -1.108252 -11.46232 0.08
v -4.962324 -10.39175 0.08
v -4.962324 -10.39175 0
v -3.891748 -6.537676 0.08
v -3.891748 -6.537676 0
v -0.03767651 -7.608252 0.08
v -0.03767651 -7.608252 0
v -10.35011 1.771393 0.004
v -10.35011 1.771393 0.008
v -10.48309 2.201295 0.008
v -10.48309 2.201295 0.004
v -9.909891 2.378607 0.008
v -9.909891 2.378607 0.004
v -9.776907 1.948705 0.008
v -9.776907 1.948705 0.004
v -9.500109 2.621393 0.004
v -9.500109 2.621393 0.008
v -9.633093 3.051295 0.008
v -9.633093 3.051295 0.004
v -9.059891 3.228607 0.008
v -9.059891 3.228607 0.004
v -8.926907 2.798705 0.008
v -8.926907 2.798705 0.004
v -8.650108 1.771393 0.004
v -8.650108 1.771393 0.008
v -8.783092 2.201295 0.008
v -8.783092 2.201295 0.004
v -8.20989 2.378607 0.008
v -8.20989 2.378607 0.004
v -8.076906 1.948705 0.008
v -8.076906 1.948705 0.004
v -10.35011 2.196393 0.004
v -10.35011 2.196393 0.008
v -10.48309 2.626295 0.008
v -10.48309 2.626295 0.004
v -9.909891 2.803607 0.008
v -9.909891 2.803607 0.004
v -9.776907 2.373705 0.008
v -9.776907 2.373705 0.004
v -9.250109 -11.10361 0.004
v -9.250109 -11.10361 0.008
v -9.383093 -10.67371 0.008
v -9.383093 -10.67371 0.004
v -8.809891 -10.49639 0.008
v -8.809891 -10.49639 0.004
v -8.676907 -10.9263 0.008
v -8.676907 -10.9263 0.004
vt 0.375 0
vt 0.625 0
vt 0.625 0.25
vt 0.375 0.25
vt 0.625 0.5
vt 0.375 0.5
vt 0.625 0.75
vt 0.375 0.75
vt 0.625 1
vt 0.375 1
vt 0.125 0.5
vt 0.125 0.75
vt 0.875 0.5
vt 0.875 0.75
vn -0.2676438 -0.9635179 0
vn -0.9635179 0.2676438 0
vn 0.2676438 0.9635179 0
vn 0.9635179 -0.2676438 0
vn 0 0 -1
vn 0 0 1
vn -0.9553365 -0.2955202 0
vn -0.2955202 0.9553365 0
vn 0.9553365 0.2955202 0
vn 0.2955202 -0.9553365 0
f 1/1/1 2/2/1 3/3/1
f 1/1/1 3/3/1 4/4/1
f 4/4/2 3/3/2 5/5/2
f 4/4/2 5/5/2 6/6/2
f 6/6/3 5/5/3 7/7/3
f 6/6/3 7/7/3 8/8/3
f 8/8/4 7/7/4 2/9/4
f 8/8/4 2/9/4 1/10/4
f 4/11/5 6/6/5 8/8/5
f 4/11/5 8/8/5 1/12/5
f 5/5/6 3/13/6 2/14/6
f 5/5/6 2/14/6 7/7/6
f 9/1/7 10/2/7 11/3/7
f 9/1/7 11/3/7 12/4/7
f 12/4/8 11/3/8 13/5/8
f 12/4/8 13/5/8 14/6/8
f 14/6/9 13/5/9 15/7/9
f 14/6/9 15/7/9 16/8/9
f 16/8/10 15/7/10 10/9/10
f 16/8/10 10/9/10 9/10/10
f 12/11/5 14/6/5 16/8/5
f 12/11/5 16/8/5 9/12/5
f 13/5/6 11/13/6 10/14/6
f 13/5/6 10/14/6 15/7/6
f 17/1/7 18/2/7 19/3/7
f 17/1/7 19/3/7 20/4/7
f 20/4/8 19/3/8 21/5/8
f 20/4/8 21/5/8 22/6/8
f 22/6/9 21/5/9 23/7/9
f 22/6/9 23/7/9 24/8/9
f 24/8/10 23/7/10 18/9/10
f 24/8/10 18/9/10 17/10/10
f 20/11/5 22/6/5 24/8/5
f 20/11/5 24/8/5 17/12/5
f 21/5/6 19/13/6 18/14/6
f 21/5/6 18/14/6 23/7/6
f 25/1/7 26/2/7 27/3/7
f 25/1/7 27/3/7 28/4/7
f 28/4/8 27/3/8 29/5/8
f 28/4/8 29/5/8 30/6/8
f 30/6/9 29/5/9 31/7/9
f 30/6/9 31/7/9 32/8/9
f 32/8/10 31/7/10 26/9/10
f 32/8/10 26/9/10 25/10/10
f 28/11/5 30/6/5 32/8/5
f 28/11/5 32/8/5 25/12/5
f 29/5/6 27/13/6 26/14/6
f 29/5/6 26/14/6 31/7/6
f 33/1/7 34/2/7 35/3/7
f 33/1/7 35/3/7 36/4/7
f 36/4/8 35/3/8 37/5/8
f 36/4/8 37/5/8 38/6/8
f 38/6/9 37/5/9 39/7/9
f 38/6/9 39/7/9 40/8/9
f 40/8/10 39/7/10 34/9/10
f 40/8/10 34/9/10 33/10/10
f 36/11/5 38/6/5 40/8/5
f 36/11/5 40/8/5 33/12/5
f 37/5/6 35/13/6 34/14/6
f 37/5/6 34/14/6 39/7/6
f 41/1/7 42/2/7 43/3/7
f 41/1/7 43/3/7 44/4/7
f 44/4/8 43/3/8 45/5/8
f 44/4/8 45/5/8 46/6/8
f 46/6/9 45/5/9 47/7/9
f 46/6/9 47/7/9 48/8/9
f 48/8/10 47/7/10 42/9/10
f 48/8/10 42/9/10 41/10/10
f 44/11/5 46/6/5 48/8/5
f 44/11/5 48/8/5 41/12/5
f 45/5/6 43/13/6 42/14/6
f 45/5/6 42/14/6 47/7/6
